<svg xmlns="http://www.w3.org/2000/svg" viewBox="0 0 240 170" aria-hidden="true">
  <rect x="30" y="24" width="180" height="112" rx="20" fill="#fff" stroke="#dfe5fb" stroke-width="4" />
  <circle cx="98" cy="72" r="24" fill="#dce4ff" />
  <path d="M61 122c3-24 17-37 37-37s34 13 37 37" fill="#7790ef" />
  <circle cx="161" cy="73" r="19" fill="#f0d5b8" />
  <path d="M132 121c3-20 14-31 29-31 16 0 27 11 30 31" fill="#4b66e5" />
  <path d="M142 66c2-17 36-20 39 2-11-2-19-7-24-14-2 8-7 12-15 12Z" fill="#38435f" />
  <circle cx="191" cy="30" r="14" fill="#28ad70" />
  <path d="m185 30 4 4 8-9" fill="none" stroke="#fff" stroke-width="3" stroke-linecap="round" stroke-linejoin="round" />
</svg>
